# xmcd CD database file
# Copyright (C) 1995-1998 Ti Kan
#
# Track frame offsets:
#	150
#	10961
#	22942
#	36874
#	48214
#	58941
#	74349
#	85912
#	96417
#	111101
#	123862
#	135565
#	148131
#	164793
#	174545
#
# Disc length: 2518 seconds
#
# Revision: 1
# Processed by: cddbd v1.4PL0 Copyright (c) Steve Scherf et al.
# Submitted via: CDex 1.30Release
#
DISCID=d309d40f
DTITLE=Big Tom and The Mainliners - Souvenirs
DYEAR=1900
DGENRE=Country
TTITLE0=RUN TO THE DOOR
TTITLE1=CLAYTON DELANEY
TTITLE2=TEACH YOUR CHILDREN
TTITLE3=WHEN I WANT TO LOVE A LADY
TTITLE4=THE OLD ACCOUNT
TTITLE5=ROCK MY CRADLE ONCE AGAIN
TTITLE6=MAMA'S ROSES
TTITLE7=WALL OF LONELINESS
TTITLE8=YOU'VE NEVER BEEN THIS FAR BEFORE
TTITLE9=MEMORIES OF YOU
TTITLE10=EMELIA EARHART
TTITLE11=I HAVE AN AGED MOTHER
TTITLE12=JASON'S FARM
TTITLE13=WE'LL SWEEP OUT THE ASHES
TTITLE14=ONE DAY AT A TOME
EXTD=ID3G:   2
EXTT0=
EXTT1=
EXTT2=
EXTT3=
EXTT4=
EXTT5=
EXTT6=
EXTT7=
EXTT8=
EXTT9=
EXTT10=
EXTT11=
EXTT12=
EXTT13=
EXTT14=
PLAYORDER=
